<?xml version="1.0" encoding="UTF-8" standalone="no"?><svg xmlns="http://www.w3.org/2000/svg" xmlns:xlink="http://www.w3.org/1999/xlink" contentScriptType="text/ecmascript" fill="#000000" width="320.6" zoomAndPan="magnify" contentStyleType="text/css" viewBox="-0.3 -0.2 320.6 50.5" height="50.5" data-name="Layer 1" preserveAspectRatio="xMidYMid meet" version="1"><g id="change1_1"><path fill="#ede3df" d="M52.149,20.091l-11.808,11.51c-.246,.24-.358,.585-.3,.924l2.788,16.253c.146,.852-.749,1.503-1.514,1.1l-14.596-7.674c-.304-.16-.667-.16-.971,0l-14.596,7.674c-.766,.402-1.66-.248-1.514-1.1l2.788-16.253c.058-.339-.054-.684-.3-.924L.316,20.091c-.619-.604-.278-1.656,.578-1.78l16.319-2.371c.34-.049,.634-.263,.786-.571L25.297,.582c.383-.776,1.489-.776,1.872,0l7.298,14.787c.152,.308,.446,.521,.786,.571l16.319,2.371c.856,.124,1.198,1.176,.578,1.78Zm66.305-1.78l-16.319-2.371c-.34-.049-.634-.263-.786-.571L94.052,.582c-.383-.776-1.489-.776-1.872,0l-7.298,14.787c-.152,.308-.446,.521-.786,.571l-16.319,2.371c-.856,.124-1.198,1.176-.578,1.78l11.808,11.51c.246,.24,.358,.585,.3,.924l-2.788,16.253c-.146,.852,.749,1.503,1.514,1.1l14.596-7.674c.304-.16,.667-.16,.971,0l14.596,7.674c.766,.402,1.66-.248,1.514-1.1l-2.788-16.253c-.058-.339,.054-.684,.3-.924l11.808-11.51c.619-.604,.278-1.656-.578-1.78Zm66.884,0l-16.319-2.371c-.34-.049-.634-.263-.786-.571l-7.298-14.787c-.383-.776-1.489-.776-1.872,0l-7.298,14.787c-.152,.308-.446,.521-.786,.571l-16.319,2.371c-.856,.124-1.198,1.176-.578,1.78l11.808,11.51c.246,.24,.358,.585,.3,.924l-2.788,16.253c-.146,.852,.749,1.503,1.514,1.1l14.596-7.674c.304-.16,.667-.16,.971,0l14.596,7.674c.766,.402,1.66-.248,1.514-1.1l-2.788-16.253c-.058-.339,.054-.684,.3-.924l11.808-11.51c.619-.604,.278-1.656-.578-1.78Zm66.884,0l-16.319-2.371c-.34-.049-.634-.263-.786-.571l-7.298-14.787c-.383-.776-1.489-.776-1.872,0l-7.298,14.787c-.152,.308-.446,.521-.786,.571l-16.319,2.371c-.856,.124-1.198,1.176-.578,1.78l11.808,11.51c.246,.24,.358,.585,.3,.924l-2.788,16.253c-.146,.852,.749,1.503,1.514,1.1l14.596-7.674c.304-.16,.667-.16,.971,0l14.596,7.674c.766,.402,1.66-.248,1.514-1.1l-2.788-16.253c-.058-.339,.054-.684,.3-.924l11.808-11.51c.619-.604,.278-1.656-.578-1.78Zm67.462,1.78c.619-.604,.278-1.656-.578-1.78l-16.319-2.371c-.34-.049-.634-.263-.786-.571l-7.298-14.787c-.383-.776-1.489-.776-1.872,0l-7.298,14.787c-.152,.308-.446,.521-.786,.571l-16.319,2.371c-.856,.124-1.198,1.176-.578,1.78l11.808,11.51c.246,.24,.358,.585,.3,.924l-2.788,16.253c-.146,.852,.749,1.503,1.514,1.1l14.596-7.674c.304-.16,.667-.16,.971,0l14.596,7.674c.766,.402,1.66-.248,1.514-1.1l-2.788-16.253c-.058-.339,.054-.684,.3-.924l11.808-11.51Z"/></g></svg>