<?xml version="1.0" encoding="UTF-8" standalone="no"?><svg xmlns="http://www.w3.org/2000/svg" xmlns:xlink="http://www.w3.org/1999/xlink" contentScriptType="text/ecmascript" fill="#ffffff" width="1186.7" zoomAndPan="magnify" contentStyleType="text/css" viewBox="-1.0 -1.9 1186.7 1695.8" height="1695.8" preserveAspectRatio="xMidYMid meet" version="1"><g id="change1_1"><path fill="inherit" d="M 819.722656 176.972656 C 840.324219 168.710938 881.511719 171.039062 890.519531 180.796875 C 866.550781 180.433594 843.039062 180.414062 819.722656 176.972656 Z M 639.019531 1075.503906 C 641.6875 1080.953125 642.15625 1086.8125 642.761719 1092.640625 C 644.503906 1109.453125 645.867188 1126.300781 648.101562 1143.042969 C 651.078125 1165.363281 654.871094 1187.5625 661.375 1209.210938 C 663.074219 1214.871094 664.796875 1220.53125 666.316406 1226.242188 C 667.070312 1229.082031 667.148438 1232.433594 663.941406 1233.523438 C 661.5625 1234.332031 657.953125 1234.480469 656.035156 1233.222656 C 646.984375 1227.25 638.921875 1220.101562 635.65625 1209.261719 C 634.121094 1204.152344 633.003906 1198.851562 632.375 1193.5625 C 629.273438 1167.480469 628.691406 1141.3125 630.34375 1115.113281 C 630.996094 1104.722656 631.902344 1094.332031 633.035156 1083.980469 C 633.40625 1080.582031 633.621094 1076.460938 639.019531 1075.503906 Z M 545.199219 156.125 C 507.429688 169.011719 471.605469 185.589844 437.125 204.96875 C 402.597656 224.375 370.339844 247.164062 339.53125 272.011719 C 308.824219 296.777344 280.691406 324.289062 252.574219 352.121094 C 251.976562 350.382812 251.714844 348.898438 252.28125 347.878906 C 255.007812 342.953125 257.636719 337.933594 260.886719 333.359375 C 274.175781 314.664062 290.214844 298.503906 307.332031 283.246094 C 332.882812 260.476562 360.429688 240.273438 389.195312 221.910156 C 411.496094 207.683594 434.933594 195.117188 458.363281 182.742188 C 478.820312 171.941406 500.183594 162.964844 522.871094 157.632812 C 530.171875 155.917969 537.515625 154.015625 545.199219 156.125 Z M 973.183594 968.457031 C 973.894531 968.585938 974.601562 968.714844 975.3125 968.84375 C 975.09375 971.523438 975.152344 974.257812 974.613281 976.867188 C 971.25 993.128906 968.726562 1009.644531 964.089844 1025.550781 C 954.949219 1056.882812 945.199219 1088.074219 934.578125 1118.941406 C 926.238281 1143.171875 916.429688 1166.902344 906.871094 1190.691406 C 897.949219 1212.910156 887.765625 1234.5625 875.363281 1255.101562 C 874.464844 1256.589844 872.882812 1257.671875 870.261719 1260.300781 C 870.875 1256.78125 870.976562 1255.152344 871.449219 1253.632812 C 879.027344 1229.160156 885.792969 1204.402344 894.460938 1180.320312 C 908.183594 1142.210938 923.445312 1104.652344 937.570312 1066.683594 C 948.949219 1036.082031 959.601562 1005.222656 970.605469 974.488281 C 971.339844 972.433594 972.316406 970.464844 973.183594 968.457031 Z M 474.242188 629.394531 C 475.101562 627.898438 475.386719 626.679688 476.148438 626.183594 C 479.917969 623.71875 483.738281 621.296875 487.683594 619.136719 C 503.257812 610.582031 518.492188 601.292969 534.59375 593.871094 C 554.527344 584.664062 575.144531 576.933594 595.554688 568.761719 C 623.554688 557.558594 651.46875 546.109375 679.714844 535.539062 C 731.410156 516.199219 781.25 493.09375 828.660156 464.867188 C 833.992188 461.6875 839.300781 458.46875 844.679688 455.371094 C 847.480469 453.757812 850.710938 452.417969 852.859375 455.953125 C 854.875 459.265625 852.011719 460.929688 849.632812 462.59375 C 844.089844 466.480469 838.636719 470.492188 833.097656 474.386719 C 810.90625 490.007812 787.613281 503.832031 763.398438 516.074219 C 719.222656 538.417969 672.621094 554.972656 626.460938 572.566406 C 595.601562 584.332031 564.742188 596.105469 533.996094 608.171875 C 519.550781 613.835938 505.441406 620.351562 491.050781 626.160156 C 486.023438 628.1875 480.820312 630.476562 474.242188 629.394531 Z M 221.132812 875.570312 C 220.660156 887.71875 219.917969 898.648438 219.890625 909.578125 C 219.859375 922.089844 223.0625 934.121094 226.972656 945.914062 C 227.808594 948.433594 229.445312 951.238281 231.558594 952.671875 C 234.882812 954.929688 239.230469 952.117188 241.003906 947.015625 C 244.046875 938.261719 246.8125 929.410156 249.972656 920.703125 C 258.632812 896.828125 272.222656 875.847656 288.921875 856.867188 C 308.410156 834.71875 330.542969 815.484375 355.554688 799.707031 C 375.84375 786.914062 396.429688 774.585938 416.777344 761.882812 C 423.941406 757.410156 430.519531 751.910156 439.121094 750.226562 C 441.753906 749.707031 444.417969 749.351562 448.054688 750.410156 C 446.183594 753.089844 444.441406 755.871094 442.421875 758.441406 C 418.84375 788.46875 398.164062 820.382812 380.167969 853.996094 C 360.839844 890.101562 345.015625 927.691406 333.039062 966.847656 C 324.046875 996.230469 316.957031 1026.09375 312.238281 1056.441406 C 305.257812 1101.351562 301.902344 1146.570312 303.421875 1192.023438 C 304.5 1224.132812 307.636719 1256.113281 313.867188 1287.660156 C 318.882812 1313.050781 324.085938 1338.441406 330.714844 1363.429688 C 335.375 1381.011719 342.425781 1397.980469 348.691406 1415.121094 C 351.742188 1423.472656 355.4375 1431.589844 359.042969 1440.320312 C 365.214844 1436.21875 364.785156 1430.792969 364.125 1425.609375 C 362.910156 1416.121094 361.183594 1406.703125 359.835938 1397.230469 C 356.664062 1374.941406 353.230469 1352.679688 350.566406 1330.320312 C 346.996094 1300.390625 344.882812 1270.34375 344.753906 1240.160156 C 344.570312 1197.25 346.933594 1154.523438 353.359375 1112.09375 C 358.25 1079.800781 365.230469 1047.960938 374.695312 1016.613281 C 388.535156 970.773438 408.097656 927.597656 433.589844 887.085938 C 456.992188 849.894531 485.367188 816.730469 517.300781 786.546875 C 546.046875 759.371094 576.375 734.011719 608.082031 710.359375 C 648.148438 680.460938 688.691406 651.15625 732.085938 626.140625 C 765.828125 606.6875 800.175781 588.292969 834.035156 569.042969 C 855.128906 557.050781 876.855469 546.066406 896.265625 531.257812 C 916.804688 515.585938 932.277344 496.441406 939.535156 471.355469 C 939.847656 470.261719 939.863281 468.964844 940.503906 468.140625 C 941.628906 466.707031 943.5 464.308594 944.402344 464.566406 C 946.160156 465.078125 948.3125 466.886719 948.820312 468.601562 C 952.566406 481.164062 953.875 494.070312 951.925781 507.0625 C 948.75 528.234375 944.949219 549.308594 941.820312 570.488281 C 938.113281 595.597656 934.640625 620.726562 938.804688 646.199219 C 940.695312 657.765625 945.097656 668.359375 950.015625 678.84375 C 956 691.589844 962.125 704.277344 967.8125 717.15625 C 976.433594 736.699219 971.289062 747.804688 951.039062 755.136719 C 941.230469 758.691406 931.523438 762.578125 921.980469 766.785156 C 913.988281 770.304688 911.808594 774.4375 913.425781 782.957031 C 914.414062 788.171875 916.363281 793.230469 918.167969 798.257812 C 924.164062 814.933594 921.996094 820.855469 906.421875 829.050781 C 902.929688 830.886719 899.265625 832.425781 895.605469 833.90625 C 886.039062 837.78125 883.984375 842.953125 888.136719 852.582031 C 889.917969 856.710938 891.808594 860.859375 892.917969 865.1875 C 894.671875 872.035156 893.4375 874.425781 886.605469 876.691406 C 881.269531 878.457031 875.660156 879.621094 870.082031 880.414062 C 857.300781 882.234375 849.398438 888.984375 847.328125 901.820312 C 846.433594 907.367188 845.828125 912.992188 845.527344 918.601562 C 844.796875 932.171875 842.820312 945.492188 838.464844 958.410156 C 834.519531 970.117188 826.757812 977.945312 815.003906 982.148438 C 802.378906 986.664062 789.535156 987.25 776.515625 984.925781 C 725.804688 975.871094 677.460938 959.738281 631.4375 936.664062 C 626.164062 934.019531 620.542969 931.917969 614.890625 930.183594 C 604.128906 926.882812 598.394531 929.851562 593.957031 940.066406 C 589.257812 950.875 588.25 962.433594 587.066406 973.894531 C 584.726562 996.585938 582.535156 1019.300781 580.847656 1042.0625 C 578.410156 1074.953125 577.550781 1107.910156 581.246094 1140.773438 C 585.300781 1176.820312 596.957031 1209.832031 622.550781 1236.761719 C 635.53125 1250.421875 651.019531 1260.011719 669.882812 1262.890625 C 680.191406 1264.460938 686.855469 1269.863281 691.191406 1278.769531 C 696.117188 1288.882812 700.796875 1299.113281 705.777344 1309.199219 C 723.804688 1345.699219 745.980469 1379.480469 772.523438 1410.460938 C 789.714844 1430.519531 809.015625 1448.03125 831.832031 1461.5625 C 835.710938 1463.859375 839.417969 1466.492188 843.449219 1468.480469 C 850.6875 1472.039062 854.113281 1478.261719 856.085938 1485.511719 C 863.023438 1511.011719 871.671875 1535.921875 882.492188 1560.039062 C 897.71875 1593.960938 916.070312 1626.140625 940.722656 1654.191406 C 952.382812 1667.460938 965.890625 1679.128906 978.714844 1691.371094 C 980.222656 1692.808594 982.683594 1693.921875 984.722656 1693.960938 C 986.644531 1693.988281 989.183594 1692.851562 990.332031 1691.359375 C 991.160156 1690.289062 990.375 1687.75 989.898438 1685.980469 C 989.632812 1684.988281 988.589844 1684.171875 987.804688 1683.359375 C 972.40625 1667.578125 959.03125 1650.320312 947.976562 1631.210938 C 941.363281 1619.78125 933.589844 1609.011719 927.046875 1597.539062 C 922.878906 1590.230469 920.003906 1582.199219 916.570312 1574.480469 C 905.859375 1550.402344 898.769531 1525.332031 895.511719 1499.171875 C 892.625 1475.980469 894.226562 1453.039062 899.039062 1430.292969 C 906.007812 1397.351562 918.195312 1366.160156 931.988281 1335.570312 C 951.441406 1292.421875 975.074219 1251.410156 997.40625 1209.742188 C 1020.828125 1166.03125 1044.007812 1122.191406 1063.796875 1076.683594 C 1080.902344 1037.351562 1095.558594 997.164062 1105.867188 955.53125 C 1119.6875 899.761719 1123.261719 843.152344 1118.097656 786.019531 C 1115.519531 757.644531 1110.800781 729.535156 1102.976562 702.113281 C 1094.546875 672.574219 1083.679688 643.914062 1069.460938 616.558594 C 1066.613281 611.113281 1064.742188 605.148438 1062.714844 599.328125 C 1062.226562 597.925781 1062.839844 596.136719 1063.070312 592.769531 C 1070.09375 598.371094 1074.886719 604.140625 1078.179688 610.761719 C 1086.941406 628.425781 1095.628906 646.15625 1103.515625 664.21875 C 1114.242188 688.777344 1122.339844 714.285156 1129 740.230469 C 1135.246094 764.554688 1139.609375 789.207031 1142.46875 814.152344 C 1146.128906 846.179688 1147.414062 878.300781 1143.789062 910.332031 C 1141.355469 931.851562 1137.886719 953.351562 1133.210938 974.488281 C 1126.933594 1002.773438 1119.699219 1030.882812 1111.664062 1058.730469 C 1103.464844 1087.171875 1091.503906 1114.292969 1078.667969 1140.953125 C 1069.730469 1159.472656 1060.128906 1177.660156 1050.785156 1195.980469 C 1048.84375 1199.792969 1047.886719 1203.640625 1049.546875 1209.441406 C 1053.601562 1204.742188 1056.980469 1201.121094 1060.046875 1197.25 C 1074.4375 1179.082031 1086.847656 1159.660156 1098.238281 1139.472656 C 1112.371094 1114.382812 1125.25 1088.710938 1136.253906 1062.164062 C 1150.523438 1027.773438 1162.578125 992.617188 1169.65625 955.976562 C 1173.761719 934.703125 1178.363281 913.449219 1180.910156 891.96875 C 1183.632812 869.0625 1185.140625 845.914062 1185.433594 822.847656 C 1185.753906 798.371094 1185.066406 773.785156 1182.988281 749.398438 C 1178.976562 702.125 1169.125 655.835938 1156.199219 610.1875 C 1143.820312 566.488281 1127.960938 524.085938 1109.265625 482.660156 C 1090.226562 440.476562 1068.378906 399.820312 1044.800781 360.039062 C 1033.015625 340.15625 1020.65625 320.597656 1009.695312 300.28125 C 1005.257812 292.070312 1002.554688 282.417969 1001.277344 273.113281 C 997.949219 249.023438 992.519531 225.609375 984.242188 202.703125 C 978.417969 186.585938 970.535156 171.828125 959.589844 158.691406 C 949.136719 146.148438 936.121094 136.929688 921.703125 129.3125 C 899.234375 117.445312 876.933594 105.253906 854.746094 92.855469 C 819.921875 73.410156 783.941406 56.472656 746.726562 42.046875 C 714.769531 29.667969 682.089844 19.472656 648.601562 12.375 C 602.210938 2.542969 555.304688 -1.851562 507.707031 0.734375 C 467.90625 2.898438 428.886719 9.070312 390.769531 20.210938 C 358.457031 29.667969 327.414062 42.535156 297.417969 57.945312 C 274.445312 69.753906 252.773438 83.355469 232.78125 99.664062 C 207.007812 120.6875 184.757812 144.953125 165.019531 171.609375 C 142.421875 202.125 123.746094 234.890625 109.664062 270.039062 C 96.3125 303.367188 86.964844 337.882812 83.640625 373.789062 C 82.574219 385.28125 81.816406 396.816406 80.542969 408.292969 C 78.730469 424.585938 73.167969 439.230469 62.171875 451.960938 C 32.203125 486.640625 24.804688 527.433594 31.414062 571.445312 C 35.035156 595.566406 43.816406 618.078125 54.445312 640.046875 C 73.09375 678.597656 97.65625 713.164062 124.195312 746.546875 C 132.433594 756.914062 140.667969 767.40625 147.609375 778.636719 C 164.765625 806.394531 164.09375 834.941406 150.304688 864.046875 C 140.464844 884.816406 126.230469 902.140625 109.941406 917.929688 C 84.078125 943 55.691406 964.71875 22.996094 980.425781 C 17.144531 983.238281 11.253906 985.992188 5.269531 988.507812 C 2.238281 989.78125 -0.964844 990.789062 0.273438 994.890625 C 1.636719 999.425781 5.28125 998.507812 8.65625 997.660156 C 18.523438 995.195312 28.445312 992.921875 38.230469 990.167969 C 70.746094 981.011719 101.671875 968.113281 130.863281 951.101562 C 156.738281 936.019531 179.601562 917.390625 199.402344 894.953125 C 204.617188 889.046875 210.636719 883.839844 216.386719 878.414062 C 217.527344 877.335938 219.132812 876.742188 221.132812 875.570312"/></g></svg>