<?xml version="1.0" encoding="UTF-8" standalone="no"?><svg xmlns="http://www.w3.org/2000/svg" xmlns:xlink="http://www.w3.org/1999/xlink" contentScriptType="text/ecmascript" fill="#000000" width="182" zoomAndPan="magnify" contentStyleType="text/css" viewBox="0.0 0.0 182.1 308.0" height="308" data-name="Layer 2" preserveAspectRatio="xMidYMid meet" version="1"><g data-name="All expand"><g data-name="Tulip Flower Cute Doodle"><g id="change1_1"><path fill="#589b00" d="M95.45,308.05c-5.81,0-10.52-4.71-10.52-10.52v-142.26c0-5.81,4.71-10.52,10.52-10.52s10.52,4.71,10.52,10.52v142.26c0,5.81-4.71,10.52-10.52,10.52Z"/></g><g id="change2_1"><path fill="#f4573d" d="M1.92,51.24S4.94,17.61,27.78,15.58c22.81-2.02,32.4,33.9,32.42,33.99,0,0,0,0,0,0,0-.1-2.4-45.03,22.59-46.37,25.01-1.35,22.59,41.18,22.59,41.18,0,0,7.48-43.91,28.57-44.37,21.08-.46,34.99,18.06,41.17,36.15,6.18,18.08,12.66,60.01-1.61,106.31-8.26,26.81-28.74,42.89-44.51,51.67-13.75,7.66-29.75,10.41-45.17,7.25-1.98-.41-4-.89-6.06-1.47-33.78-9.42-51.88-35.77-57.38-44.55-4.89-8.77-9.9-19.66-13.73-32.58C-2.1,93.31-.52,67.42,1.92,51.24Z"/></g><g id="change1_2"><path fill="#589b00" d="M98.6,292.16s26.92-82.07,56.3-69.29c29.38,12.78-6.09,96.42-56.3,69.29Z"/></g><g id="change1_3"><path fill="#589b00" d="M95.71,280.69s-26.92-82.07-56.3-69.29c-29.38,12.78,6.09,96.42,56.3,69.29Z"/></g><g id="change3_1"><path fill="#c64736" d="M112.89,163.77c-.83,0-1.61-.53-1.89-1.36-5.42-16.04-9.06-32.68-10.82-49.45-2.41-22.97-1.32-46.17,3.24-68.97.22-1.08,1.27-1.78,2.35-1.57,1.08.22,1.79,1.27,1.57,2.35-4.48,22.4-5.55,45.2-3.18,67.77,1.73,16.48,5.3,32.83,10.63,48.59.35,1.05-.21,2.18-1.25,2.53-.21.07-.43.11-.64.11Z"/></g><g id="change3_2"><path fill="#c64736" d="M75.79,163.77s-.06,0-.1,0c-1.1-.05-1.96-.99-1.9-2.09,1.01-21.43-.24-42.99-3.72-64.09-2.64-16.02-6.6-31.96-11.77-47.38-.35-1.05.21-2.18,1.26-2.53,1.05-.35,2.18.21,2.53,1.26,5.24,15.62,9.25,31.77,11.92,48,3.52,21.38,4.79,43.22,3.77,64.93-.05,1.07-.93,1.91-2,1.91Z"/></g></g></g></svg>